<mxfile host="Electron" modified="2023-12-28T07:00:50.309Z" agent="Mozilla/5.0 (Windows NT 10.0; Win64; x64) AppleWebKit/537.36 (KHTML, like Gecko) draw.io/21.2.8 Chrome/112.0.5615.165 Electron/24.2.0 Safari/537.36" etag="1pRLDTd8c2BGhEZdBMLB" version="21.2.8" type="device">
  <diagram name="Page-1" id="UcSlUft3GAuf-4zFbCCS">
    <mxGraphModel dx="723" dy="888" grid="1" gridSize="10" guides="1" tooltips="1" connect="0" arrows="1" fold="1" page="1" pageScale="1" pageWidth="827" pageHeight="1169" math="0" shadow="0">
      <root>
        <mxCell id="0" />
        <mxCell id="1" parent="0" />
        <mxCell id="XHajMvZDSqc855p-cs0b-3" value="&lt;font size=&quot;1&quot; face=&quot;Verdana&quot; color=&quot;#ffffff&quot;&gt;&lt;b style=&quot;font-size: 16px;&quot;&gt;8&lt;/b&gt;&lt;/font&gt;" style="ellipse;whiteSpace=wrap;html=1;aspect=fixed;fillColor=#e51400;fontColor=#ffffff;strokeColor=#B20000;" vertex="1" parent="1">
          <mxGeometry x="960" y="397" width="43" height="43" as="geometry" />
        </mxCell>
        <mxCell id="XHajMvZDSqc855p-cs0b-4" value="&lt;font size=&quot;1&quot; face=&quot;Verdana&quot; color=&quot;#ffffff&quot;&gt;&lt;b style=&quot;font-size: 16px;&quot;&gt;6&lt;/b&gt;&lt;/font&gt;" style="ellipse;whiteSpace=wrap;html=1;aspect=fixed;fillColor=#000000;fontColor=#ffffff;strokeColor=#000000;" vertex="1" parent="1">
          <mxGeometry x="882" y="317" width="43" height="43" as="geometry" />
        </mxCell>
        <mxCell id="XHajMvZDSqc855p-cs0b-5" value="" style="endArrow=classic;html=1;rounded=0;exitX=0.936;exitY=0.868;exitDx=0;exitDy=0;exitPerimeter=0;entryX=0.096;entryY=0.064;entryDx=0;entryDy=0;entryPerimeter=0;" edge="1" parent="1" source="XHajMvZDSqc855p-cs0b-4" target="XHajMvZDSqc855p-cs0b-3">
          <mxGeometry width="50" height="50" relative="1" as="geometry">
            <mxPoint x="891" y="376" as="sourcePoint" />
            <mxPoint x="925" y="323" as="targetPoint" />
          </mxGeometry>
        </mxCell>
        <mxCell id="XHajMvZDSqc855p-cs0b-6" value="&lt;font size=&quot;1&quot; face=&quot;Verdana&quot; color=&quot;#ffffff&quot;&gt;&lt;b style=&quot;font-size: 16px;&quot;&gt;4&lt;/b&gt;&lt;/font&gt;" style="ellipse;whiteSpace=wrap;html=1;aspect=fixed;fillColor=#e51400;fontColor=#ffffff;strokeColor=#B20000;" vertex="1" parent="1">
          <mxGeometry x="810" y="397" width="43" height="43" as="geometry" />
        </mxCell>
        <mxCell id="XHajMvZDSqc855p-cs0b-7" value="" style="endArrow=classic;html=1;rounded=0;exitX=0.144;exitY=0.852;exitDx=0;exitDy=0;exitPerimeter=0;" edge="1" parent="1" source="XHajMvZDSqc855p-cs0b-4" target="XHajMvZDSqc855p-cs0b-6">
          <mxGeometry width="50" height="50" relative="1" as="geometry">
            <mxPoint x="971" y="300" as="sourcePoint" />
            <mxPoint x="935" y="333" as="targetPoint" />
          </mxGeometry>
        </mxCell>
        <mxCell id="XHajMvZDSqc855p-cs0b-8" value="&lt;font size=&quot;1&quot; face=&quot;Verdana&quot; color=&quot;#ffffff&quot;&gt;&lt;b style=&quot;font-size: 16px;&quot;&gt;5&lt;/b&gt;&lt;/font&gt;" style="ellipse;whiteSpace=wrap;html=1;aspect=fixed;fillColor=#e51400;fontColor=#ffffff;strokeColor=#B20000;" vertex="1" parent="1">
          <mxGeometry x="880" y="480" width="43" height="43" as="geometry" />
        </mxCell>
        <mxCell id="XHajMvZDSqc855p-cs0b-10" value="" style="endArrow=classic;html=1;rounded=0;exitX=0.792;exitY=0.96;exitDx=0;exitDy=0;exitPerimeter=0;entryX=0.112;entryY=0.132;entryDx=0;entryDy=0;entryPerimeter=0;" edge="1" parent="1" source="XHajMvZDSqc855p-cs0b-6" target="XHajMvZDSqc855p-cs0b-8">
          <mxGeometry width="50" height="50" relative="1" as="geometry">
            <mxPoint x="880" y="420" as="sourcePoint" />
            <mxPoint x="930" y="370" as="targetPoint" />
          </mxGeometry>
        </mxCell>
        <mxCell id="XHajMvZDSqc855p-cs0b-11" value="&lt;font size=&quot;1&quot; face=&quot;Verdana&quot; color=&quot;#ffffff&quot;&gt;&lt;b style=&quot;font-size: 16px;&quot;&gt;7&lt;/b&gt;&lt;/font&gt;" style="ellipse;whiteSpace=wrap;html=1;aspect=fixed;fillColor=#e51400;fontColor=#ffffff;strokeColor=#B20000;" vertex="1" parent="1">
          <mxGeometry x="923" y="157" width="43" height="43" as="geometry" />
        </mxCell>
        <mxCell id="XHajMvZDSqc855p-cs0b-12" value="&lt;font size=&quot;1&quot; face=&quot;Verdana&quot; color=&quot;#ffffff&quot;&gt;&lt;b style=&quot;font-size: 16px;&quot;&gt;6&lt;/b&gt;&lt;/font&gt;" style="ellipse;whiteSpace=wrap;html=1;aspect=fixed;fillColor=#000000;fontColor=#ffffff;strokeColor=#000000;" vertex="1" parent="1">
          <mxGeometry x="845" y="77" width="43" height="43" as="geometry" />
        </mxCell>
        <mxCell id="XHajMvZDSqc855p-cs0b-13" value="" style="endArrow=classic;html=1;rounded=0;exitX=0.936;exitY=0.868;exitDx=0;exitDy=0;exitPerimeter=0;entryX=0.096;entryY=0.064;entryDx=0;entryDy=0;entryPerimeter=0;" edge="1" parent="1" source="XHajMvZDSqc855p-cs0b-12" target="XHajMvZDSqc855p-cs0b-11">
          <mxGeometry width="50" height="50" relative="1" as="geometry">
            <mxPoint x="854" y="136" as="sourcePoint" />
            <mxPoint x="888" y="83" as="targetPoint" />
          </mxGeometry>
        </mxCell>
        <mxCell id="XHajMvZDSqc855p-cs0b-14" value="&lt;font size=&quot;1&quot; face=&quot;Verdana&quot; color=&quot;#ffffff&quot;&gt;&lt;b style=&quot;font-size: 16px;&quot;&gt;4&lt;/b&gt;&lt;/font&gt;" style="ellipse;whiteSpace=wrap;html=1;aspect=fixed;fillColor=#e51400;fontColor=#ffffff;strokeColor=#B20000;" vertex="1" parent="1">
          <mxGeometry x="773" y="157" width="43" height="43" as="geometry" />
        </mxCell>
        <mxCell id="XHajMvZDSqc855p-cs0b-15" value="" style="endArrow=classic;html=1;rounded=0;exitX=0.144;exitY=0.852;exitDx=0;exitDy=0;exitPerimeter=0;" edge="1" parent="1" source="XHajMvZDSqc855p-cs0b-12" target="XHajMvZDSqc855p-cs0b-14">
          <mxGeometry width="50" height="50" relative="1" as="geometry">
            <mxPoint x="934" y="60" as="sourcePoint" />
            <mxPoint x="898" y="93" as="targetPoint" />
          </mxGeometry>
        </mxCell>
        <mxCell id="XHajMvZDSqc855p-cs0b-16" value="&lt;font size=&quot;1&quot; face=&quot;Verdana&quot; color=&quot;#ffffff&quot;&gt;&lt;b style=&quot;font-size: 16px;&quot;&gt;8&lt;/b&gt;&lt;/font&gt;" style="ellipse;whiteSpace=wrap;html=1;aspect=fixed;fillColor=#e51400;fontColor=#ffffff;strokeColor=#B20000;" vertex="1" parent="1">
          <mxGeometry x="993" y="240" width="40" height="40" as="geometry" />
        </mxCell>
        <mxCell id="XHajMvZDSqc855p-cs0b-18" value="" style="endArrow=classic;html=1;rounded=0;exitX=0.816;exitY=0.84;exitDx=0;exitDy=0;exitPerimeter=0;entryX=0.176;entryY=0.06;entryDx=0;entryDy=0;entryPerimeter=0;" edge="1" parent="1" source="XHajMvZDSqc855p-cs0b-11" target="XHajMvZDSqc855p-cs0b-16">
          <mxGeometry width="50" height="50" relative="1" as="geometry">
            <mxPoint x="902" y="130" as="sourcePoint" />
            <mxPoint x="938" y="170" as="targetPoint" />
          </mxGeometry>
        </mxCell>
        <mxCell id="XHajMvZDSqc855p-cs0b-26" value="&lt;font size=&quot;1&quot; face=&quot;Verdana&quot; color=&quot;#ffffff&quot;&gt;&lt;b style=&quot;font-size: 16px;&quot;&gt;7&lt;/b&gt;&lt;/font&gt;" style="ellipse;whiteSpace=wrap;html=1;aspect=fixed;fillColor=#000000;fontColor=#ffffff;strokeColor=#000000;" vertex="1" parent="1">
          <mxGeometry x="1412" y="157" width="43" height="43" as="geometry" />
        </mxCell>
        <mxCell id="XHajMvZDSqc855p-cs0b-27" value="&lt;font size=&quot;1&quot; face=&quot;Verdana&quot; color=&quot;#ffffff&quot;&gt;&lt;b style=&quot;font-size: 16px;&quot;&gt;6&lt;/b&gt;&lt;/font&gt;" style="ellipse;whiteSpace=wrap;html=1;aspect=fixed;fillColor=#e51400;fontColor=#ffffff;strokeColor=#B20000;" vertex="1" parent="1">
          <mxGeometry x="1334" y="77" width="43" height="43" as="geometry" />
        </mxCell>
        <mxCell id="XHajMvZDSqc855p-cs0b-28" value="" style="endArrow=classic;html=1;rounded=0;exitX=0.936;exitY=0.868;exitDx=0;exitDy=0;exitPerimeter=0;entryX=0.096;entryY=0.064;entryDx=0;entryDy=0;entryPerimeter=0;" edge="1" parent="1" source="XHajMvZDSqc855p-cs0b-27" target="XHajMvZDSqc855p-cs0b-26">
          <mxGeometry width="50" height="50" relative="1" as="geometry">
            <mxPoint x="1343" y="136" as="sourcePoint" />
            <mxPoint x="1377" y="83" as="targetPoint" />
          </mxGeometry>
        </mxCell>
        <mxCell id="XHajMvZDSqc855p-cs0b-29" value="&lt;font size=&quot;1&quot; face=&quot;Verdana&quot; color=&quot;#ffffff&quot;&gt;&lt;b style=&quot;font-size: 16px;&quot;&gt;4&lt;/b&gt;&lt;/font&gt;" style="ellipse;whiteSpace=wrap;html=1;aspect=fixed;fillColor=#000000;fontColor=#ffffff;strokeColor=#180c0c;" vertex="1" parent="1">
          <mxGeometry x="1262" y="157" width="43" height="43" as="geometry" />
        </mxCell>
        <mxCell id="XHajMvZDSqc855p-cs0b-30" value="" style="endArrow=classic;html=1;rounded=0;exitX=0.144;exitY=0.852;exitDx=0;exitDy=0;exitPerimeter=0;" edge="1" parent="1" source="XHajMvZDSqc855p-cs0b-27" target="XHajMvZDSqc855p-cs0b-29">
          <mxGeometry width="50" height="50" relative="1" as="geometry">
            <mxPoint x="1423" y="60" as="sourcePoint" />
            <mxPoint x="1387" y="93" as="targetPoint" />
          </mxGeometry>
        </mxCell>
        <mxCell id="XHajMvZDSqc855p-cs0b-31" value="&lt;font size=&quot;1&quot; face=&quot;Verdana&quot; color=&quot;#ffffff&quot;&gt;&lt;b style=&quot;font-size: 16px;&quot;&gt;8&lt;/b&gt;&lt;/font&gt;" style="ellipse;whiteSpace=wrap;html=1;aspect=fixed;fillColor=#e51400;fontColor=#ffffff;strokeColor=#B20000;" vertex="1" parent="1">
          <mxGeometry x="1482" y="240" width="40" height="40" as="geometry" />
        </mxCell>
        <mxCell id="XHajMvZDSqc855p-cs0b-32" value="" style="endArrow=classic;html=1;rounded=0;exitX=0.816;exitY=0.84;exitDx=0;exitDy=0;exitPerimeter=0;entryX=0.176;entryY=0.06;entryDx=0;entryDy=0;entryPerimeter=0;" edge="1" parent="1" source="XHajMvZDSqc855p-cs0b-26" target="XHajMvZDSqc855p-cs0b-31">
          <mxGeometry width="50" height="50" relative="1" as="geometry">
            <mxPoint x="1391" y="130" as="sourcePoint" />
            <mxPoint x="1427" y="170" as="targetPoint" />
          </mxGeometry>
        </mxCell>
        <mxCell id="XHajMvZDSqc855p-cs0b-40" value="&lt;font size=&quot;1&quot; face=&quot;Verdana&quot; color=&quot;#ffffff&quot;&gt;&lt;b style=&quot;font-size: 16px;&quot;&gt;8&lt;/b&gt;&lt;/font&gt;" style="ellipse;whiteSpace=wrap;html=1;aspect=fixed;fillColor=#000000;fontColor=#ffffff;strokeColor=#0d0c0c;" vertex="1" parent="1">
          <mxGeometry x="1430" y="402" width="43" height="43" as="geometry" />
        </mxCell>
        <mxCell id="XHajMvZDSqc855p-cs0b-41" value="&lt;font size=&quot;1&quot; face=&quot;Verdana&quot; color=&quot;#ffffff&quot;&gt;&lt;b style=&quot;font-size: 16px;&quot;&gt;6&lt;/b&gt;&lt;/font&gt;" style="ellipse;whiteSpace=wrap;html=1;aspect=fixed;fillColor=#e51400;fontColor=#ffffff;strokeColor=#B20000;" vertex="1" parent="1">
          <mxGeometry x="1352" y="322" width="43" height="43" as="geometry" />
        </mxCell>
        <mxCell id="XHajMvZDSqc855p-cs0b-42" value="" style="endArrow=classic;html=1;rounded=0;exitX=0.936;exitY=0.868;exitDx=0;exitDy=0;exitPerimeter=0;entryX=0.096;entryY=0.064;entryDx=0;entryDy=0;entryPerimeter=0;" edge="1" parent="1" source="XHajMvZDSqc855p-cs0b-41" target="XHajMvZDSqc855p-cs0b-40">
          <mxGeometry width="50" height="50" relative="1" as="geometry">
            <mxPoint x="1361" y="381" as="sourcePoint" />
            <mxPoint x="1395" y="328" as="targetPoint" />
          </mxGeometry>
        </mxCell>
        <mxCell id="XHajMvZDSqc855p-cs0b-43" value="&lt;font size=&quot;1&quot; face=&quot;Verdana&quot; color=&quot;#ffffff&quot;&gt;&lt;b style=&quot;font-size: 16px;&quot;&gt;4&lt;/b&gt;&lt;/font&gt;" style="ellipse;whiteSpace=wrap;html=1;aspect=fixed;fillColor=#080707;fontColor=#ffffff;strokeColor=#0d0c0c;" vertex="1" parent="1">
          <mxGeometry x="1280" y="402" width="43" height="43" as="geometry" />
        </mxCell>
        <mxCell id="XHajMvZDSqc855p-cs0b-44" value="" style="endArrow=classic;html=1;rounded=0;exitX=0.144;exitY=0.852;exitDx=0;exitDy=0;exitPerimeter=0;" edge="1" parent="1" source="XHajMvZDSqc855p-cs0b-41" target="XHajMvZDSqc855p-cs0b-43">
          <mxGeometry width="50" height="50" relative="1" as="geometry">
            <mxPoint x="1441" y="305" as="sourcePoint" />
            <mxPoint x="1405" y="338" as="targetPoint" />
          </mxGeometry>
        </mxCell>
        <mxCell id="XHajMvZDSqc855p-cs0b-45" value="&lt;font size=&quot;1&quot; face=&quot;Verdana&quot; color=&quot;#ffffff&quot;&gt;&lt;b style=&quot;font-size: 16px;&quot;&gt;5&lt;/b&gt;&lt;/font&gt;" style="ellipse;whiteSpace=wrap;html=1;aspect=fixed;fillColor=#e51400;fontColor=#ffffff;strokeColor=#B20000;" vertex="1" parent="1">
          <mxGeometry x="1350" y="485" width="43" height="43" as="geometry" />
        </mxCell>
        <mxCell id="XHajMvZDSqc855p-cs0b-46" value="" style="endArrow=classic;html=1;rounded=0;exitX=0.792;exitY=0.96;exitDx=0;exitDy=0;exitPerimeter=0;entryX=0.112;entryY=0.132;entryDx=0;entryDy=0;entryPerimeter=0;" edge="1" parent="1" source="XHajMvZDSqc855p-cs0b-43" target="XHajMvZDSqc855p-cs0b-45">
          <mxGeometry width="50" height="50" relative="1" as="geometry">
            <mxPoint x="1350" y="425" as="sourcePoint" />
            <mxPoint x="1400" y="375" as="targetPoint" />
          </mxGeometry>
        </mxCell>
        <mxCell id="XHajMvZDSqc855p-cs0b-55" value="" style="endArrow=classic;html=1;rounded=0;dashed=1;strokeWidth=2;" edge="1" parent="1">
          <mxGeometry width="50" height="50" relative="1" as="geometry">
            <mxPoint x="1080" y="431.65999999999997" as="sourcePoint" />
            <mxPoint x="1191" y="431.23" as="targetPoint" />
          </mxGeometry>
        </mxCell>
        <mxCell id="XHajMvZDSqc855p-cs0b-57" value="" style="endArrow=classic;html=1;rounded=0;dashed=1;strokeWidth=2;" edge="1" parent="1">
          <mxGeometry width="50" height="50" relative="1" as="geometry">
            <mxPoint x="1080" y="181.65999999999997" as="sourcePoint" />
            <mxPoint x="1191" y="181.23000000000002" as="targetPoint" />
          </mxGeometry>
        </mxCell>
        <mxCell id="XHajMvZDSqc855p-cs0b-58" value="&lt;font style=&quot;font-size: 16px;&quot;&gt;其他两种情况类似&lt;/font&gt;" style="text;html=1;align=center;verticalAlign=middle;resizable=0;points=[];autosize=1;strokeColor=none;fillColor=none;" vertex="1" parent="1">
          <mxGeometry x="1060" y="590" width="150" height="30" as="geometry" />
        </mxCell>
      </root>
    </mxGraphModel>
  </diagram>
</mxfile>
